<svg xmlns="http://www.w3.org/2000/svg" viewBox="0 0 1693.94 476.78"><defs><style>.cls-1,.cls-2{fill:#898989;}.cls-2,.cls-3{fill-rule:evenodd;}.cls-3,.cls-4{fill:#002f7b;}</style></defs><title>资源 1</title><g id="图层_2" data-name="图层 2"><g id="图层_1-2" data-name="图层 1"><path class="cls-1" d="M1566.72,448.63V434.3a34.68,34.68,0,0,0,3.74-1c6.84-2.59,10.3-7.49,10.3-14.76,0-5.11-1.73-9.07-5.26-11.74a19.1,19.1,0,0,0-8.78-3.46v-4.75c6.34.29,11.59,1.37,15.84,3.31,7.49,3.38,11.23,9,11.23,16.92,0,5.18-1.66,9.43-5.11,12.53s-8.93,5.4-16.56,6.91l24.7,29.3a16.72,16.72,0,0,0,4.54,4.1,11.76,11.76,0,0,0,5.9,1.3v2.23H1588l-21.24-26.57Zm127.22-50.11v2.23a14.73,14.73,0,0,0-8.71,3.53,58.43,58.43,0,0,0-7.85,9.65l-17.71,26.21V462.6q0,6.48,2.16,8.42c1.44,1.3,4.82,1.94,10.22,1.94v2.23h-36.72V473c5.54,0,9-.79,10.44-2.52,1.15-1.3,1.66-4.39,1.66-9.14V441.22l-15.7-22.32c-5.69-8.14-9.79-13.32-12.17-15.41a12.18,12.18,0,0,0-7.2-2.74v-2.23h33.55v2.23a47.08,47.08,0,0,0-6,.36c-1.66.29-2.45,1.37-2.45,3.17a6.52,6.52,0,0,0,.65,2.45,14.48,14.48,0,0,0,1.37,2.59L1657.15,435l17.14-26.14c.65-1,1.08-1.73,1.37-2.23a5.05,5.05,0,0,0,.36-2,3,3,0,0,0-2.3-3.17,22.53,22.53,0,0,0-6-.65v-2.23Zm-127.22.07v4.75a37.27,37.27,0,0,0-6.55-.5c-3.17,0-5.18.22-6,.79s-1.44,1.66-1.44,3.31v28.51a67.82,67.82,0,0,0,14-1.15v14.33l-7.27-9.14h-6.77v23c0,4.1.72,6.84,2,8.28s4.25,2.16,8.78,2.16v2.23h-33.19V473c4.54,0,7.49-.79,8.78-2.52.94-1.3,1.44-4.39,1.44-9.14V411.12c0-4.18-.65-6.84-1.87-8s-4-2-8.35-2.38v-2.23h33.12c1.08,0,2.23,0,3.31.07Zm-460.51,51.55v-4.68h13.9l-13.9-31.75V401.4l1.87-4.25h2.38l29.88,65.74c1.94,4.32,3.6,7.13,4.82,8.28s3.24,1.8,5.9,1.8v2.23h-30.53V473c2.88,0,4.82-.14,5.83-.58a3.58,3.58,0,0,0,2.52-3.82,9.65,9.65,0,0,0-.5-2.81,48.25,48.25,0,0,0-1.66-4.54l-5-11.09Zm122.62-27.22h-2.74a28.78,28.78,0,0,0-8.78-15.26c-4.61-4.1-10.51-6.12-17.57-6.12a26.45,26.45,0,0,0-9.5,1.8,24.75,24.75,0,0,0-8.5,5.26,28.34,28.34,0,0,0-6.7,9.65c-2.16,5-3.24,11.3-3.24,18.86,0,11.45,3,20.3,9,26.5,5.26,5.4,12,8.14,20.38,8.14A36.13,36.13,0,0,0,1215,469a45.5,45.5,0,0,0,13.25-9l2.16,2.09c-1.22,1.3-2.38,2.59-3.53,3.82a37.63,37.63,0,0,1-10.66,7.06,42.68,42.68,0,0,1-18.29,3.82c-10.87,0-19.94-3-27.22-9.14-8.57-7.13-12.82-17.42-12.82-30.82,0-12.31,4.18-22.18,12.6-29.59,7.7-6.91,17.14-10.3,28.15-10.3a49.73,49.73,0,0,1,10.66,1.15c3.38.94,6.91,1.8,10.44,2.66a7.15,7.15,0,0,0,3.53-.94,4.37,4.37,0,0,0,1.94-2.88h2.52l1.08,26Zm9.43,52.27V473c4.75,0,7.7-.79,9-2.52,1-1.37,1.58-4.46,1.58-9.14V411.12q0-6.48-1.94-8.42t-8.64-1.94v-2.23h33.34v2.23c-4.39,0-7.27.65-8.57,2s-2,4.1-2,8.35v22.46h36.36V411.12q0-6.48-1.94-8.42t-8.64-1.94v-2.23h33.34v2.23c-4.39,0-7.27.65-8.57,2s-2,4.1-2,8.35V462.6c0,4,.65,6.84,1.87,8.28s4.18,2.09,8.71,2.09v2.23h-33.34V473c4.75,0,7.7-.79,9-2.52,1-1.37,1.58-4.46,1.58-9.14V438.7H1261v23.9c0,4,.65,6.84,1.87,8.28s4.18,2.09,8.71,2.09v2.23Zm87.91,0V473c5,0,8.14-.65,9.58-2s2.09-4.1,2.09-8.35V411.12c0-4.39-.72-7.2-2.09-8.5s-4.61-1.87-9.58-1.87v-2.23h35.64v2.23c-4.68,0-7.78.58-9.36,1.87s-2.38,4.1-2.38,8.5V462.6q0,6.48,2.38,8.42c1.58,1.3,4.68,1.94,9.36,1.94v2.23Zm124.06-76.68v2.23c-4.54.43-7.34,1.3-8.57,2.52-1.87,1.94-2.88,6-2.88,12.31V476.5h-2l-52.7-63.5-.22,45.14c0,6,.72,9.94,2.23,11.88s4.54,3,9,3v2.23h-28.15V473c4.68,0,7.85-.94,9.36-2.74s2.23-5.9,2.23-12.1v-51c-2.3-2.66-4.18-4.46-5.69-5.18a12.48,12.48,0,0,0-5.9-1.15v-2.23h20.45l45.94,55.58.22-38.59c0-6.34-.86-10.44-2.59-12.38-1.44-1.58-4.39-2.38-8.93-2.38v-2.23Zm74.81,57.1-5.4,19.58H1455V473c4,0,6.7-.65,8.21-2s2.23-4.1,2.23-8.35V411.12c0-4.39-.72-7.2-2.16-8.5s-4.25-1.87-8.28-1.87v-2.23h63.58l.36,16.56h-3c-.86-5.11-2.45-8.42-4.75-9.86s-6.77-2.3-13.46-2.3h-16.2a5.34,5.34,0,0,0-3.1.65c-.58.43-.86,1.51-.86,3.31v25.7h18.5c5.11,0,8.35-.72,9.86-2.16s2.59-4.39,3.31-8.86H1512v26.86h-2.74c-.72-4.68-1.87-7.78-3.46-9.14s-4.82-2.09-9.72-2.09h-18.5v28.73c0,2.38.79,3.82,2.38,4.25s6.7.65,15.48.65c7.63,0,13.18-1.08,16.78-3.17s6.77-6,9.5-12ZM1106.21,401.4v12.31l-.07-.14-13.82,31.9h13.9v4.68h-15.84l-5.47,13.61a10.69,10.69,0,0,0-1,4.39,4.16,4.16,0,0,0,3.1,4.25,14.51,14.51,0,0,0,5,.58v2.23h-23.76V473a8.12,8.12,0,0,0,3.53-.65,10.78,10.78,0,0,0,2.59-1.87c1.22-1.22,2.74-3.74,4.54-7.42,1-1.94,2.38-5,4.25-9l23-52.63Zm-308,48.74v-4.68h13.75l-13.75-31.75V401.4l1.8-4.25h2.38l29.81,65.74c2,4.32,3.6,7.13,4.9,8.28s3.17,1.8,5.9,1.8v2.23H812.45V473c2.88,0,4.82-.14,5.83-.58a3.66,3.66,0,0,0,2.52-3.82,9.65,9.65,0,0,0-.5-2.81c-.36-1.15-.94-2.66-1.66-4.54l-5-11.09ZM931.1,398.52v2.23c-4.46.43-7.27,1.3-8.5,2.52-1.87,1.94-2.88,6-2.88,12.31V476.5h-2L865,413l-.22,45.14c0,6,.72,9.94,2.23,11.88s4.54,3,9,3v2.23H847.87V473c4.68,0,7.85-.94,9.36-2.74s2.23-5.9,2.23-12.1v-51c-2.3-2.66-4.18-4.46-5.69-5.18a12.48,12.48,0,0,0-5.9-1.15v-2.23h20.45l45.94,55.58.22-38.59c0-6.34-.86-10.44-2.59-12.38-1.44-1.58-4.39-2.38-8.93-2.38v-2.23Zm130.75,0v2.23c-4,0-6.77.58-8.21,1.87s-2.23,4.1-2.23,8.5V462.6q0,6.48,2.16,8.42c1.44,1.3,4.18,1.94,8.28,1.94v2.23H1028.3V473c4.68,0,7.7-.72,9-2.09s1.87-4.61,1.87-9.58v-52L1008.5,475.2h-1.66L977,412l-.29,46.15c0,6,.79,9.94,2.3,11.88s4.54,3,9,3v2.23H959.9V473c4.68,0,7.78-.94,9.29-2.74s2.3-5.9,2.3-12.1v-47c0-4.39-.79-7.2-2.23-8.5s-4.68-1.87-9.36-1.87v-2.23h23.9L1011.46,457,1038,398.52ZM798.19,401.4v12.31l-.07-.14-13.82,31.9h13.9v4.68H782.28l-5.4,13.61a10.87,10.87,0,0,0-1.08,4.39,4.22,4.22,0,0,0,3.17,4.25,14.25,14.25,0,0,0,5,.58v2.23H760.25V473a8.34,8.34,0,0,0,3.53-.65,10.77,10.77,0,0,0,2.59-1.87c1.22-1.22,2.74-3.74,4.54-7.42.94-1.94,2.38-5,4.18-9l23.11-52.63ZM580.61,450.14v-4.68h13.9l-13.9-31.75V401.4l1.87-4.25h2.45l29.81,65.74c2,4.32,3.6,7.13,4.82,8.28s3.24,1.8,6,1.8v2.23h-30.6V473c2.88,0,4.9-.14,5.9-.58a3.66,3.66,0,0,0,2.52-3.82,12.93,12.93,0,0,0-.5-2.81q-.54-1.73-1.73-4.54l-5-11.09Zm50.54,25.06V473c4.9,0,8.14-.65,9.5-2s2.09-4.1,2.09-8.35V411.12c0-4.39-.72-7.2-2.09-8.5s-4.61-1.87-9.5-1.87v-2.23h35.57v2.23c-4.61,0-7.78.58-9.36,1.87s-2.38,4.1-2.38,8.5V462.6q0,6.48,2.38,8.42c1.58,1.3,4.75,1.94,9.36,1.94v2.23Zm123.48-76.68v2.23a14.72,14.72,0,0,0-8.71,3.53,58.46,58.46,0,0,0-7.85,9.65l-17.71,26.21V462.6q0,6.48,2.16,8.42c1.44,1.3,4.82,1.94,10.22,1.94v2.23H696V473c5.54,0,9-.79,10.44-2.52,1.15-1.3,1.66-4.39,1.66-9.14V441.22l-15.7-22.32c-5.69-8.14-9.79-13.32-12.17-15.41a12.18,12.18,0,0,0-7.2-2.74v-2.23h33.55v2.23a45.41,45.41,0,0,0-6,.36c-1.66.29-2.45,1.37-2.45,3.17a6.51,6.51,0,0,0,.65,2.45,14.39,14.39,0,0,0,1.37,2.59L717.84,435,735,408.82a17.76,17.76,0,0,0,1.3-2.23,4,4,0,0,0,.36-2,3,3,0,0,0-2.23-3.17,22.53,22.53,0,0,0-6-.65v-2.23Zm-252.5,2.23v-2.23h31.61v2.23c-3.82,0-6.7.43-8.71,1.44s-5.18,3.46-9.5,7.56l-22.75,21.82,27.94,28.94c7.85,8.28,14.11,12.46,18.79,12.46v2.23H503V473c3,0,4.82,0,5.4-.07,1.94-.36,3-1.22,3-2.81,0-1.94-2.88-6.12-8.71-12.53-1.87-1.94-4.18-4.32-6.84-6.91L483,438.48l-3.1,2.45V462.6c0,4.25.65,7,1.94,8.35s4.25,2,8.86,2v2.23H457V473q6.91,0,8.86-2.16c1.22-1.51,1.87-4.68,1.87-9.5V411.12c0-4.39-.72-7.2-2.16-8.5s-4.32-1.87-8.57-1.87v-2.23h33.77v2.23c-4.54,0-7.49.65-8.78,1.94s-2,4.1-2,8.42v23.76q21-18.25,25.42-22.61c3.46-3.38,5.11-6,5.11-8a2.79,2.79,0,0,0-1.8-2.88,22.64,22.64,0,0,0-6.55-.65Zm78.48.65v12.17l-13.82,31.9h13.82v4.68H564.77l-5.4,13.61a10.88,10.88,0,0,0-1.08,4.39,4.24,4.24,0,0,0,3.1,4.25,14.77,14.77,0,0,0,5,.58v2.23H542.74V473a8.35,8.35,0,0,0,3.53-.65,10.78,10.78,0,0,0,2.59-1.87,36.39,36.39,0,0,0,4.54-7.42c.94-1.94,2.38-5,4.18-9Z"/><polygon class="cls-2" points="257.62 70.49 399.53 70.49 386.21 87.19 244.37 87.19 257.62 70.49"/><polygon class="cls-2" points="234 100.3 375.77 100.3 362.38 117 220.75 117 234 100.3"/><polygon class="cls-2" points="210.38 130.03 351.94 130.03 338.62 146.74 197.14 146.74 210.38 130.03"/><polygon class="cls-2" points="186.7 159.84 328.18 159.84 314.86 176.54 173.45 176.54 186.7 159.84"/><polygon class="cls-2" points="163.08 189.65 304.42 189.65 291.1 206.35 149.83 206.35 163.08 189.65"/><polygon class="cls-2" points="0 219.46 280.66 219.46 267.34 236.16 0 236.16 0 219.46"/><polygon class="cls-2" points="0 249.26 256.9 249.26 243.5 265.97 0 265.97 0 249.26"/><polygon class="cls-2" points="0 279.07 246.1 279.07 259.42 295.7 0 295.7 0 279.07"/><polygon class="cls-2" points="0 308.74 269.86 308.74 283.18 325.51 0 325.51 0 308.74"/><polygon class="cls-2" points="145.3 338.54 293.62 338.54 306.94 355.25 158.54 355.25 145.3 338.54"/><polygon class="cls-2" points="168.91 368.35 317.38 368.35 330.7 385.06 182.16 385.06 168.91 368.35"/><polygon class="cls-2" points="192.53 398.16 341.14 398.16 354.46 414.86 205.85 414.86 192.53 398.16"/><polygon class="cls-2" points="216.22 427.97 364.97 427.97 378.29 444.67 229.46 444.67 216.22 427.97"/><polygon class="cls-2" points="239.83 457.78 388.73 457.78 402.05 474.48 253.08 474.48 239.83 457.78"/><polygon class="cls-3" points="0 70.49 228.89 70.49 215.57 87.19 0 87.19 0 70.49"/><polygon class="cls-3" points="0 100.3 205.2 100.3 191.95 117 0 117 0 100.3"/><polygon class="cls-3" points="0 130.03 181.58 130.03 168.34 146.74 0 146.74 0 130.03"/><polygon class="cls-3" points="0 159.84 157.9 159.84 144.65 176.54 0 176.54 0 159.84"/><polygon class="cls-3" points="0 189.65 134.28 189.65 121.03 206.35 0 206.35 0 189.65"/><polygon class="cls-3" points="0 338.54 116.5 338.54 129.74 355.25 0 355.25 0 338.54"/><polygon class="cls-3" points="0 368.35 140.11 368.35 153.36 385.06 0 385.06 0 368.35"/><polygon class="cls-3" points="0 398.16 163.8 398.16 177.05 414.86 0 414.86 0 398.16"/><polygon class="cls-3" points="0 427.97 187.42 427.97 200.66 444.67 0 444.67 0 427.97"/><polygon class="cls-3" points="0 457.78 211.03 457.78 224.28 474.48 0 474.48 0 457.78"/><path class="cls-4" d="M436.54.07a40.11,40.11,0,0,1,25.06,11.38h0a38.89,38.89,0,0,1,11.59,27.79h0A38.89,38.89,0,0,1,461.59,67a40,40,0,0,1-25.06,11.3V69.77a31.29,31.29,0,0,0,19.08-8.86,30.41,30.41,0,0,0,9.07-21.67h0a30.06,30.06,0,0,0-9.14-21.67V17.5a31.31,31.31,0,0,0-19-8.86V.07Zm0,44.21c.65.86,1.44,2,2.3,3.38l5.47,8h9l-4.54-7.2a40.88,40.88,0,0,0-4.32-6,15.28,15.28,0,0,0-4-3.1c3.31-.5,5.76-1.66,7.42-3.46a9.73,9.73,0,0,0,2.45-6.84,10.58,10.58,0,0,0-1.58-5.83,8.71,8.71,0,0,0-4.39-3.53c-1.66-.65-4.25-.94-7.78-1V25c1.08,0,1.8.07,2.16.07a4.48,4.48,0,0,1,2.81,1.51,4.37,4.37,0,0,1,1,3,4.7,4.7,0,0,1-.72,2.74,4.37,4.37,0,0,1-2.16,1.58,16.32,16.32,0,0,1-3.1.36ZM433.58,0h0c1,0,1.94,0,3,.07V8.64c-1-.07-1.94-.14-3-.14h0a31,31,0,0,0-22,9.07,30.29,30.29,0,0,0-9.07,21.67h0a30.41,30.41,0,0,0,9.07,21.67,31.51,31.51,0,0,0,22,9h0a20.27,20.27,0,0,0,3-.14v8.57c-1,.07-1.94.14-3,.14h0a39.5,39.5,0,0,1-28-11.52,39,39,0,0,1-11.66-27.72h0a39.24,39.24,0,0,1,11.66-27.79A39.74,39.74,0,0,1,433.58,0Zm3,18.72H419.69V55.66h7.56V40.25h1.58a11.74,11.74,0,0,1,3.74.43,6.38,6.38,0,0,1,2.3,1.51c.36.43.94,1.08,1.66,2.09v-10c-1,.07-2.23.07-3.67.07h-5.62V25h9.29Z"/><path class="cls-3" d="M961.7,71.35l74.38-.5.86,26.21-6,2-.86,77.69,9.43,1,1.66,25.2L1031,204l-1.73,140.18h-41V209H961.7V179.57l23.11.5-.86-78.7H961.7Zm-71.06.5,71.06-.5v30H939.46l-.86,77.69,23.11.5V209H938.59V317.88s.86,25.27-22.25,26.28l-32.47,1-.86-28.3,17.06-1L901.8,207l-12.89-1,1.73-28.22,10.3-1,1.66-76.68-12.82-1,.86-27.22Zm-57.89,274v-21.1l12,.36-.94-110.88h-11V177h21.67s26.42,2.52,25,30.38V345.82Zm0-181.51V73.66H871l-1.58,31Zm0-90.65V164.3L825,177h7.78V214.2h-11l-.94,110.16,12,.36v21.1H777.1l-1.44-86.9L720.5,340.78H676.8l.22-.29h-.58l-3.17-239.33-42,.5V296.14C636,337.68,603.36,339,603.36,339h-92.3V311h79.13V80.28H690.26C718,87.7,716.9,108.5,716.9,108.5V277.06L823.46,107.5l2.23-8.21L752,100.94l-.72-27.29ZM511.06,276.34l34.42-.86s24.48,1.22,27.65-31.9l-1-66.31-61.06,1.15v25.2H529v45.65H511.06v27.07Zm0-114.48H570V80H540.79v56.3H526.9V69.12H511.06Zm0-92.74v92.74H448.92V80L478,81.29v56.45h17.42V69.12Zm0,109.3v25.2h-59V179.5l59-1.08Zm0,70.85v27.07l-15.62.36L496.51,311h14.54v28H484.7c-33.77,8.06-32.62-26.86-32.62-26.86V249.26Z"/><path class="cls-3" d="M1552,205.27V173.88H1561V144.43h30.67v29.45h11.38v31.39H1591.7v139.1H1561V205.27Zm0-73h59V329.47c.14,5.9,3.74,13.32,11.74,14.9h68.76V309.24h-44.64v-29.3h30.6c7-.86,13-6,14-14.9V151.49h-35v94.32h-9.65V132.26h32.54c9.79-1.37,11.81-12.6,11.81-16.92V101.59h-.07V73.44H1654.7v28.15h-7.92V72.5h-35.86v29.09h-59Zm0-30.67v30.67h-51V101.59Zm0,72.29v31.39h-10.15v139.1h-28.87V205.27h-14V173.88h14V144.43h28.87v29.45Zm-73.87,169.85V144.58h14.62V343.73Zm0-210.17v-32h14.62v32Zm0-32v32H1453V343.73H1406.3V176.11l-73.44,166.1h-1.8v1.87h-46.15V104.69h-30.24l.14,212.54c-.79,11.09-5.76,22.75-18.14,25-15.26.29-30.6,0-45.94,0v-33.7h17.78V71H1309c12.53.36,22,10,22,23.26V259.06l44.86-99.79,30.38-.58V133.56h-46.66v-32h46.66v-32H1453v32Zm0,43h-14.54V343.73h14.54V144.58ZM1170.36,344.09V147.74h13.32V344.09Zm0-211.32h20.38V99.07h-20.38Zm-93.24,15h12.38V342.22h-12.38V147.74Zm93.24-48.67h-25.78l1.08-28.58H1103L1102,99.07h-24.84v33.7H1102V344.09h42.62V132.77h25.78V99.07Zm0,48.67V344.09H1157V147.74Zm-105.7,0h12.46V342.22h-12.46V147.74Zm12.46-48.67v33.7H1054V99.07Z"/></g></g></svg>